<svg width="375" height="375" viewBox="0 0 375 375" fill="none" xmlns="http://www.w3.org/2000/svg">
<mask id="mask0_19_562" style="mask-type:luminance" maskUnits="userSpaceOnUse" x="36" y="29" width="303" height="317">
<path d="M187.5 31.25L228.539 61.1875L279.344 61.0938L294.945 109.438L336.102 139.219L320.312 187.5L336.102 235.781L294.945 265.562L279.344 313.906L228.539 313.812L187.5 343.75L146.461 313.812L95.6563 313.906L80.0547 265.562L38.8984 235.781L54.6875 187.5L38.8984 139.219L80.0547 109.438L95.6563 61.0938L146.461 61.1875L187.5 31.25Z" fill="#555555" stroke="white" stroke-width="4" stroke-linecap="round" stroke-linejoin="round"/>
<path d="M132.812 187.5L171.875 226.562L250 148.438" stroke="white" stroke-width="4" stroke-linecap="round" stroke-linejoin="round"/>
</mask>
<g mask="url(#mask0_19_562)">
<path d="M0 0H375V375H0V0Z" fill="white"/>
</g>
</svg>
